<svg width="245" height="145" viewBox="0 0 245 145" fill="none" xmlns="http://www.w3.org/2000/svg">
<g clip-path="url(#clip0_31_972)">
<rect width="245" height="145" rx="10" fill="#0C0C0C"/>
<rect width="245" height="25" fill="#131313"/>
<path d="M101.696 13.82C101.696 13.156 101.82 12.572 102.068 12.068C102.316 11.564 102.664 11.176 103.112 10.904C103.56 10.632 104.084 10.496 104.684 10.496C105.196 10.496 105.664 10.612 106.088 10.844C106.512 11.076 106.856 11.436 107.12 11.924C107.384 12.412 107.528 13.02 107.552 13.748L107.564 14.156H103.076C103.124 14.732 103.288 15.18 103.568 15.5C103.848 15.82 104.22 15.98 104.684 15.98C104.996 15.98 105.276 15.896 105.524 15.728C105.78 15.552 105.972 15.308 106.1 14.996L107.456 15.128C107.28 15.736 106.936 16.224 106.424 16.592C105.92 16.96 105.34 17.144 104.684 17.144C104.084 17.144 103.56 17.008 103.112 16.736C102.664 16.464 102.316 16.076 102.068 15.572C101.82 15.068 101.696 14.484 101.696 13.82ZM106.16 13.208C106.08 12.68 105.908 12.292 105.644 12.044C105.38 11.788 105.06 11.66 104.684 11.66C104.26 11.66 103.912 11.796 103.64 12.068C103.368 12.332 103.188 12.712 103.1 13.208H106.16ZM113.091 8.48H114.375V17H113.175L113.139 16.088C112.963 16.424 112.711 16.684 112.383 16.868C112.063 17.052 111.675 17.144 111.219 17.144C110.667 17.144 110.195 17 109.803 16.712C109.419 16.416 109.127 16.016 108.927 15.512C108.735 15.008 108.639 14.444 108.639 13.82C108.639 13.196 108.735 12.632 108.927 12.128C109.127 11.624 109.419 11.228 109.803 10.94C110.195 10.644 110.667 10.496 111.219 10.496C111.659 10.496 112.031 10.584 112.335 10.76C112.647 10.928 112.899 11.176 113.091 11.504V8.48ZM113.019 14.9C113.139 14.572 113.199 14.212 113.199 13.82C113.199 13.42 113.139 13.056 113.019 12.728C112.907 12.392 112.731 12.124 112.491 11.924C112.251 11.724 111.951 11.624 111.591 11.624C111.063 11.624 110.663 11.832 110.391 12.248C110.119 12.656 109.983 13.18 109.983 13.82C109.983 14.444 110.119 14.96 110.391 15.368C110.663 15.776 111.063 15.98 111.591 15.98C111.951 15.98 112.251 15.884 112.491 15.692C112.731 15.492 112.907 15.228 113.019 14.9ZM119.819 10.64V17H118.523V10.64H119.819ZM119.675 10.64V11.768H116.315V10.64H119.675ZM121.883 15.872V17H116.111V15.872H121.883ZM119.819 8.48V9.764H118.451V8.48H119.819ZM126.006 8.96V15.008C126.006 15.28 126.078 15.492 126.222 15.644C126.366 15.796 126.57 15.872 126.834 15.872H128.43V17H126.702C126.03 17 125.53 16.836 125.202 16.508C124.882 16.18 124.722 15.712 124.722 15.104V8.96H126.006ZM128.454 10.64V11.768H122.934V10.64H128.454ZM132.901 17.144C132.317 17.144 131.797 17.008 131.341 16.736C130.893 16.456 130.545 16.064 130.297 15.56C130.049 15.056 129.925 14.476 129.925 13.82C129.925 13.164 130.049 12.584 130.297 12.08C130.545 11.576 130.893 11.188 131.341 10.916C131.797 10.636 132.317 10.496 132.901 10.496C133.485 10.496 134.001 10.636 134.449 10.916C134.905 11.188 135.257 11.576 135.505 12.08C135.753 12.584 135.877 13.164 135.877 13.82C135.877 14.476 135.753 15.056 135.505 15.56C135.257 16.064 134.905 16.456 134.449 16.736C134.001 17.008 133.485 17.144 132.901 17.144ZM132.901 15.98C133.413 15.98 133.813 15.788 134.101 15.404C134.389 15.02 134.533 14.492 134.533 13.82C134.533 13.148 134.389 12.62 134.101 12.236C133.813 11.852 133.413 11.66 132.901 11.66C132.389 11.66 131.989 11.852 131.701 12.236C131.413 12.62 131.269 13.148 131.269 13.82C131.269 14.492 131.413 15.02 131.701 15.404C131.989 15.788 132.389 15.98 132.901 15.98ZM139.869 10.64L139.989 12.308L139.881 12.212C139.961 11.676 140.137 11.28 140.409 11.024C140.681 10.768 141.057 10.64 141.537 10.64H142.845V11.768H141.621C141.309 11.768 141.053 11.824 140.853 11.936C140.653 12.048 140.505 12.216 140.409 12.44C140.321 12.656 140.277 12.936 140.277 13.28V17H138.981V10.64H139.869ZM139.665 10.64V11.768H137.373V10.64H139.665ZM142.257 15.872V17H137.373V15.872H142.257Z" fill="white" fill-opacity="0.7"/>
<rect x="15" y="40" width="20" height="10" rx="2" fill="#64B5E2"/>
<rect opacity="0.3" x="40" y="40" width="39" height="10" rx="2" fill="white" fill-opacity="0.37"/>
<rect opacity="0.3" x="84" y="40" width="60" height="10" rx="2" fill="white" fill-opacity="0.37"/>
<rect x="149" y="40" width="8" height="10" rx="2" fill="#EB6E6E"/>
<rect opacity="0.3" x="162" y="40" width="43" height="10" rx="2" fill="white" fill-opacity="0.37"/>
<rect x="210" y="40" width="10" height="10" rx="2" fill="#4D9EE9"/>
<rect opacity="0.3" x="15" y="60" width="39" height="10" rx="2" fill="white" fill-opacity="0.37"/>
<rect opacity="0.3" x="59" y="60" width="58" height="10" rx="2" fill="white" fill-opacity="0.37"/>
<rect opacity="0.3" x="122" y="60" width="41" height="10" rx="2" fill="white" fill-opacity="0.37"/>
<rect opacity="0.3" x="168" y="60" width="32" height="10" rx="2" fill="white" fill-opacity="0.37"/>
<rect x="205" y="60" width="21" height="10" rx="2" fill="#EB6E6E"/>
<rect opacity="0.3" x="15" y="80" width="39" height="10" rx="2" fill="white" fill-opacity="0.37"/>
<rect x="59" y="80" width="35" height="10" rx="2" fill="#EB6E6E"/>
<rect opacity="0.3" x="99" y="80" width="66" height="10" rx="2" fill="white" fill-opacity="0.37"/>
<rect x="170" y="80" width="31" height="10" rx="2" fill="#64B5E2"/>
<rect opacity="0.3" x="206" y="80" width="21" height="10" rx="2" fill="white" fill-opacity="0.37"/>
<rect opacity="0.3" x="15" y="100" width="39" height="10" rx="2" fill="white" fill-opacity="0.37"/>
<rect opacity="0.3" x="59" y="100" width="66" height="10" rx="2" fill="white" fill-opacity="0.37"/>
<rect x="130" y="100" width="34" height="10" rx="2" fill="#64B5E2"/>
<rect x="169" y="100" width="8" height="10" rx="2" fill="#EB6E6E"/>
<rect opacity="0.3" x="182" y="100" width="36" height="10" rx="2" fill="white" fill-opacity="0.37"/>
<rect x="223" y="100" width="10" height="10" rx="2" fill="#4D9EE9"/>
<rect x="15" y="120" width="20" height="10" rx="2" fill="#64B5E2"/>
<rect opacity="0.3" x="40" y="120" width="39" height="10" rx="2" fill="white" fill-opacity="0.37"/>
<rect opacity="0.3" x="84" y="120" width="55" height="10" rx="2" fill="white" fill-opacity="0.37"/>
<rect y="25" width="245" height="120" fill="url(#paint0_linear_31_972)"/>
<g filter="url(#filter0_d_31_972)">
<path d="M181.686 87.393L198.256 98.0432L189.374 98.0432L184.884 106.829L181.686 87.393Z" fill="white"/>
</g>
</g>
<rect x="0.5" y="0.5" width="244" height="144" rx="9.5" stroke="white" stroke-opacity="0.2"/>
<defs>
<filter id="filter0_d_31_972" x="173.886" y="79.5929" width="28.1702" height="31.0364" filterUnits="userSpaceOnUse" color-interpolation-filters="sRGB">
<feFlood flood-opacity="0" result="BackgroundImageFix"/>
<feColorMatrix in="SourceAlpha" type="matrix" values="0 0 0 0 0 0 0 0 0 0 0 0 0 0 0 0 0 0 127 0" result="hardAlpha"/>
<feOffset dx="-2" dy="-2"/>
<feGaussianBlur stdDeviation="2.9"/>
<feComposite in2="hardAlpha" operator="out"/>
<feColorMatrix type="matrix" values="0 0 0 0 0 0 0 0 0 0 0 0 0 0 0 0 0 0 0.4 0"/>
<feBlend mode="normal" in2="BackgroundImageFix" result="effect1_dropShadow_31_972"/>
<feBlend mode="normal" in="SourceGraphic" in2="effect1_dropShadow_31_972" result="shape"/>
</filter>
<linearGradient id="paint0_linear_31_972" x1="122.5" y1="25" x2="122.5" y2="145" gradientUnits="userSpaceOnUse">
<stop offset="0.465" stop-color="#0C0C0C" stop-opacity="0"/>
<stop offset="1" stop-color="#0C0C0C"/>
</linearGradient>
<clipPath id="clip0_31_972">
<rect width="245" height="145" rx="10" fill="white"/>
</clipPath>
</defs>
</svg>
