<svg width="334" height="161" viewBox="0 0 334 161" fill="none" xmlns="http://www.w3.org/2000/svg">
<g clip-path="url(#clip0_50_431)">
<rect width="89" height="161" rx="10" fill="#151515"/>
<rect width="89" height="29" fill="#151515"/>
<rect x="26" y="6" width="40" height="8" rx="4" fill="#0E0E0E"/>
<rect width="89" height="100" transform="translate(0 29)" fill="#0E0E0E"/>
<path d="M23.116 49L22.984 47.128L23.128 47.32C23.048 47.68 22.88 48.004 22.624 48.292C22.368 48.572 22.048 48.792 21.664 48.952C21.288 49.112 20.884 49.192 20.452 49.192C19.668 49.192 18.98 48.996 18.388 48.604C17.796 48.212 17.34 47.68 17.02 47.008C16.708 46.336 16.552 45.584 16.552 44.752C16.552 43.912 16.708 43.156 17.02 42.484C17.34 41.804 17.796 41.268 18.388 40.876C18.98 40.484 19.68 40.288 20.488 40.288C21.4 40.288 22.156 40.544 22.756 41.056C23.364 41.568 23.764 42.268 23.956 43.156L22.612 43.228C22.476 42.668 22.228 42.236 21.868 41.932C21.508 41.628 21.044 41.476 20.476 41.476C19.9 41.476 19.42 41.62 19.036 41.908C18.652 42.196 18.364 42.588 18.172 43.084C17.988 43.58 17.896 44.136 17.896 44.752C17.896 45.368 17.988 45.92 18.172 46.408C18.364 46.896 18.652 47.284 19.036 47.572C19.428 47.86 19.908 48.004 20.476 48.004C20.916 48.004 21.296 47.908 21.616 47.716C21.944 47.524 22.2 47.26 22.384 46.924C22.568 46.588 22.676 46.204 22.708 45.772H20.476V44.644H23.992V49H23.116ZM26.5456 42.64L26.5936 44.38L26.4856 44.296C26.5736 43.728 26.7456 43.312 27.0016 43.048C27.2576 42.776 27.6256 42.64 28.1056 42.64H28.7176V43.684H28.0936C27.7656 43.684 27.4936 43.744 27.2776 43.864C27.0696 43.984 26.9136 44.164 26.8096 44.404C26.7056 44.644 26.6536 44.94 26.6536 45.292V49H25.3816V42.64H26.5456ZM29.2607 45.82C29.2607 45.156 29.3847 44.572 29.6327 44.068C29.8887 43.564 30.2447 43.176 30.7007 42.904C31.1567 42.632 31.6887 42.496 32.2967 42.496C32.8167 42.496 33.2887 42.616 33.7127 42.856C34.1447 43.096 34.4887 43.464 34.7447 43.96C35.0007 44.448 35.1407 45.052 35.1647 45.772L35.1767 46.18H30.6047C30.6447 46.772 30.8127 47.236 31.1087 47.572C31.4047 47.9 31.8007 48.064 32.2967 48.064C32.6167 48.064 32.9047 47.976 33.1607 47.8C33.4247 47.624 33.6207 47.384 33.7487 47.08L35.0807 47.176C34.8967 47.776 34.5487 48.256 34.0367 48.616C33.5327 48.968 32.9527 49.144 32.2967 49.144C31.6887 49.144 31.1567 49.008 30.7007 48.736C30.2447 48.464 29.8887 48.076 29.6327 47.572C29.3847 47.068 29.2607 46.484 29.2607 45.82ZM33.8327 45.232C33.7607 44.664 33.5847 44.248 33.3047 43.984C33.0327 43.712 32.6967 43.576 32.2967 43.576C31.8327 43.576 31.4567 43.724 31.1687 44.02C30.8807 44.308 30.7007 44.712 30.6287 45.232H33.8327ZM36.2916 44.548C36.4196 43.908 36.7196 43.408 37.1916 43.048C37.6716 42.68 38.2796 42.496 39.0156 42.496C39.8796 42.496 40.5396 42.728 40.9956 43.192C41.4596 43.656 41.6916 44.324 41.6916 45.196V47.56C41.6916 47.72 41.7236 47.836 41.7876 47.908C41.8596 47.972 41.9596 48.004 42.0876 48.004H42.3396V49H41.9436L41.7996 49.012C41.4556 49.004 41.1636 48.932 40.9236 48.796C40.6836 48.652 40.5516 48.392 40.5276 48.016C40.3676 48.344 40.1116 48.616 39.7596 48.832C39.4076 49.04 38.9796 49.144 38.4756 49.144C37.8196 49.144 37.2716 48.98 36.8316 48.652C36.3996 48.324 36.1836 47.884 36.1836 47.332C36.1836 46.924 36.2796 46.596 36.4716 46.348C36.6636 46.1 36.9276 45.908 37.2636 45.772C37.5996 45.636 38.0436 45.516 38.5956 45.412L40.4196 45.052C40.4116 44.54 40.2916 44.16 40.0596 43.912C39.8276 43.656 39.4796 43.528 39.0156 43.528C38.6476 43.528 38.3436 43.624 38.1036 43.816C37.8636 44 37.6996 44.272 37.6116 44.632L36.2916 44.548ZM37.5036 47.308C37.5036 47.556 37.6076 47.76 37.8156 47.92C38.0316 48.08 38.3436 48.16 38.7516 48.16C39.0716 48.152 39.3596 48.072 39.6156 47.92C39.8716 47.768 40.0716 47.54 40.2156 47.236C40.3676 46.924 40.4436 46.548 40.4436 46.108V46.024L39.0876 46.264C39.0236 46.272 38.9596 46.284 38.8956 46.3C38.5676 46.356 38.3116 46.416 38.1276 46.48C37.9436 46.536 37.7916 46.632 37.6716 46.768C37.5596 46.896 37.5036 47.076 37.5036 47.308ZM44.8953 41.2V47.176C44.8953 47.432 44.9593 47.628 45.0873 47.764C45.2153 47.892 45.3993 47.956 45.6393 47.956H46.5633V49H45.5073C44.8913 49 44.4233 48.844 44.1033 48.532C43.7833 48.22 43.6233 47.768 43.6233 47.176V41.2H44.8953ZM46.5753 42.64V43.672H42.6513V42.64H46.5753ZM53.0105 40.48H54.6665L57.7385 49H56.3465L55.5785 46.78H52.0985L51.3185 49H49.9385L53.0105 40.48ZM55.1705 45.604L53.8385 41.716L52.5065 45.604H55.1705ZM58.6577 42.64H59.8457L59.8937 43.996L59.7737 43.828C59.9337 43.396 60.1857 43.068 60.5297 42.844C60.8817 42.612 61.3097 42.496 61.8137 42.496C62.4137 42.496 62.9177 42.644 63.3257 42.94C63.7417 43.236 64.0497 43.636 64.2497 44.14C64.4497 44.644 64.5497 45.204 64.5497 45.82C64.5497 46.436 64.4497 46.996 64.2497 47.5C64.0497 48.004 63.7417 48.404 63.3257 48.7C62.9177 48.996 62.4137 49.144 61.8137 49.144C61.4857 49.144 61.1857 49.092 60.9137 48.988C60.6497 48.884 60.4217 48.732 60.2297 48.532C60.0377 48.324 59.8897 48.076 59.7857 47.788L59.9297 47.644V50.8H58.6577V42.64ZM59.8217 45.82C59.8217 46.22 59.8817 46.588 60.0017 46.924C60.1297 47.26 60.3217 47.532 60.5777 47.74C60.8337 47.948 61.1457 48.052 61.5137 48.052C62.0817 48.052 62.5057 47.84 62.7857 47.416C63.0737 46.984 63.2177 46.452 63.2177 45.82C63.2177 45.196 63.0737 44.668 62.7857 44.236C62.5057 43.804 62.0817 43.588 61.5137 43.588C61.1457 43.588 60.8337 43.692 60.5777 43.9C60.3217 44.108 60.1297 44.384 60.0017 44.728C59.8817 45.064 59.8217 45.428 59.8217 45.82ZM65.7798 42.64H66.9678L67.0158 43.996L66.8958 43.828C67.0558 43.396 67.3078 43.068 67.6518 42.844C68.0038 42.612 68.4318 42.496 68.9358 42.496C69.5358 42.496 70.0398 42.644 70.4478 42.94C70.8638 43.236 71.1718 43.636 71.3718 44.14C71.5718 44.644 71.6718 45.204 71.6718 45.82C71.6718 46.436 71.5718 46.996 71.3718 47.5C71.1718 48.004 70.8638 48.404 70.4478 48.7C70.0398 48.996 69.5358 49.144 68.9358 49.144C68.6078 49.144 68.3078 49.092 68.0358 48.988C67.7718 48.884 67.5438 48.732 67.3518 48.532C67.1598 48.324 67.0118 48.076 66.9078 47.788L67.0518 47.644V50.8H65.7798V42.64ZM66.9438 45.82C66.9438 46.22 67.0038 46.588 67.1238 46.924C67.2518 47.26 67.4438 47.532 67.6998 47.74C67.9558 47.948 68.2678 48.052 68.6358 48.052C69.2038 48.052 69.6278 47.84 69.9078 47.416C70.1958 46.984 70.3398 46.452 70.3398 45.82C70.3398 45.196 70.1958 44.668 69.9078 44.236C69.6278 43.804 69.2038 43.588 68.6358 43.588C68.2678 43.588 67.9558 43.692 67.6998 43.9C67.4438 44.108 67.2518 44.384 67.1238 44.728C67.0038 45.064 66.9438 45.428 66.9438 45.82Z" fill="white" fill-opacity="0.7"/>
<rect x="8" y="60" width="73" height="25" rx="5" fill="#232323"/>
<rect x="8" y="89" width="73" height="25" rx="5" fill="#232323"/>
<rect x="8" y="118" width="73" height="25" rx="5" fill="#232323"/>
<rect y="108" width="89" height="21" fill="url(#paint0_linear_50_431)"/>
<rect width="89" height="32" transform="translate(0 129)" fill="#151515"/>
<rect x="27" y="154" width="35" height="3" rx="1.5" fill="#232323"/>
</g>
<rect x="0.5" y="0.5" width="88" height="160" rx="9.5" stroke="white" stroke-opacity="0.2"/>
<g clip-path="url(#clip1_50_431)">
<rect x="99" width="235" height="161" rx="10" fill="#151515"/>
<rect width="235" height="13" transform="translate(99)" fill="#0E0E0E"/>
<path d="M99 3C99 1.34315 100.343 0 102 0H165C166.657 0 168 1.34315 168 3V6.5V9C168 11.5 169.5 13 172 13C170.5 13 165.888 13 165 13H102C100.343 13 99 11.6569 99 10V3Z" fill="#151515"/>
<path d="M118.465 9L118.37 8.22L118.48 8.3C118.427 8.53 118.312 8.71833 118.135 8.865C117.958 9.00833 117.757 9.08 117.53 9.08C117.257 9.08 117.017 9.005 116.81 8.855C116.603 8.70167 116.445 8.48667 116.335 8.21C116.225 7.93 116.17 7.60333 116.17 7.23C116.17 6.85667 116.225 6.53 116.335 6.25C116.445 5.96667 116.603 5.75 116.81 5.6C117.017 5.44667 117.257 5.37 117.53 5.37C117.837 5.37 118.103 5.475 118.33 5.685C118.56 5.89167 118.715 6.16833 118.795 6.515L118.28 6.55C118.227 6.33667 118.132 6.165 117.995 6.035C117.862 5.90167 117.708 5.835 117.535 5.835C117.352 5.835 117.197 5.89 117.07 6C116.943 6.11 116.847 6.26833 116.78 6.475C116.717 6.68167 116.685 6.93333 116.685 7.23C116.685 7.52333 116.717 7.77333 116.78 7.98C116.847 8.18667 116.943 8.345 117.07 8.455C117.197 8.56167 117.352 8.615 117.535 8.615C117.678 8.615 117.807 8.57333 117.92 8.49C118.037 8.40333 118.128 8.28667 118.195 8.14C118.265 7.99333 118.305 7.82833 118.315 7.645H117.525V7.195H118.785V9H118.465ZM120.403 6.35L120.453 7.045L120.408 7.005C120.441 6.78167 120.515 6.61667 120.628 6.51C120.741 6.40333 120.898 6.35 121.098 6.35H121.638V6.77H121.113C120.983 6.77 120.875 6.795 120.788 6.845C120.705 6.895 120.641 6.97 120.598 7.07C120.558 7.16667 120.538 7.28833 120.538 7.435V9H120.058V6.35H120.403ZM120.318 6.35V6.77H119.378V6.35H120.318ZM121.383 8.58V9H119.378V8.58H121.383ZM122.206 7.675C122.206 7.39833 122.256 7.155 122.356 6.945C122.459 6.735 122.603 6.57333 122.786 6.46C122.973 6.34667 123.189 6.29 123.436 6.29C123.646 6.29 123.836 6.33833 124.006 6.435C124.179 6.52833 124.319 6.675 124.426 6.875C124.536 7.075 124.598 7.32667 124.611 7.63V7.81H122.721C122.738 8.06333 122.808 8.26167 122.931 8.405C123.058 8.545 123.226 8.615 123.436 8.615C123.573 8.615 123.696 8.57833 123.806 8.505C123.919 8.42833 124.004 8.32333 124.061 8.19L124.571 8.235C124.494 8.485 124.353 8.685 124.146 8.835C123.939 8.985 123.703 9.06 123.436 9.06C123.189 9.06 122.973 9.00333 122.786 8.89C122.603 8.77667 122.459 8.615 122.356 8.405C122.256 8.195 122.206 7.95167 122.206 7.675ZM124.091 7.425C124.054 7.18833 123.978 7.015 123.861 6.905C123.744 6.79167 123.603 6.735 123.436 6.735C123.243 6.735 123.084 6.795 122.961 6.915C122.841 7.035 122.763 7.205 122.726 7.425H124.091ZM125.204 7.14C125.254 6.88333 125.379 6.67833 125.579 6.525C125.782 6.36833 126.024 6.29 126.304 6.29C126.634 6.29 126.894 6.385 127.084 6.575C127.274 6.765 127.369 7.04 127.369 7.4V8.405C127.369 8.465 127.382 8.51 127.409 8.54C127.436 8.56667 127.477 8.58 127.534 8.58H127.644V9H127.509C127.352 9 127.226 8.96333 127.129 8.89C127.036 8.81333 126.977 8.71333 126.954 8.59C126.897 8.72 126.794 8.83167 126.644 8.925C126.494 9.015 126.321 9.06 126.124 9.06C125.847 9.06 125.617 8.99167 125.434 8.855C125.251 8.71833 125.159 8.535 125.159 8.305C125.159 8.13167 125.199 7.99167 125.279 7.885C125.362 7.77833 125.476 7.69667 125.619 7.64C125.762 7.58 125.947 7.53 126.174 7.49L126.894 7.345C126.891 7.145 126.836 6.99333 126.729 6.89C126.626 6.78667 126.482 6.735 126.299 6.735C126.146 6.735 126.016 6.77667 125.909 6.86C125.806 6.94 125.739 7.045 125.709 7.175L125.204 7.14ZM125.664 8.295C125.664 8.39833 125.707 8.48333 125.794 8.55C125.884 8.61333 126.014 8.645 126.184 8.645C126.321 8.64167 126.442 8.61 126.549 8.55C126.659 8.49 126.744 8.40333 126.804 8.29C126.867 8.17333 126.899 8.03667 126.899 7.88V7.76L126.329 7.86C126.299 7.86333 126.271 7.86833 126.244 7.875C126.104 7.89833 125.996 7.92333 125.919 7.95C125.842 7.97333 125.781 8.01333 125.734 8.07C125.687 8.12333 125.664 8.19833 125.664 8.295ZM129.327 5.65V8.22C129.327 8.33333 129.357 8.42167 129.417 8.485C129.477 8.54833 129.562 8.58 129.672 8.58H130.362V9H129.642C129.376 9 129.177 8.935 129.047 8.805C128.917 8.67167 128.852 8.48333 128.852 8.24V5.65H129.327ZM130.367 6.35V6.77H128.097V6.35H130.367ZM134.883 5.45H135.493L136.568 9H136.063L135.188 5.99L134.313 9H133.808L134.883 5.45ZM134.383 8.065L134.558 7.635H135.823L135.993 8.065H134.383ZM137.021 6.35H137.461L137.481 6.925L137.431 6.845C137.501 6.665 137.608 6.52833 137.751 6.435C137.895 6.33833 138.07 6.29 138.276 6.29C138.52 6.29 138.725 6.35167 138.891 6.475C139.061 6.59833 139.188 6.765 139.271 6.975C139.355 7.185 139.396 7.41833 139.396 7.675C139.396 7.93167 139.355 8.165 139.271 8.375C139.188 8.585 139.061 8.75167 138.891 8.875C138.725 8.99833 138.52 9.06 138.276 9.06C138.14 9.06 138.016 9.03833 137.906 8.995C137.796 8.95167 137.701 8.88833 137.621 8.805C137.545 8.71833 137.485 8.61333 137.441 8.49L137.501 8.425V9.75H137.021V6.35ZM137.456 7.675C137.456 7.845 137.481 8.00167 137.531 8.145C137.585 8.285 137.665 8.39833 137.771 8.485C137.878 8.57167 138.011 8.615 138.171 8.615C138.408 8.615 138.586 8.525 138.706 8.345C138.826 8.165 138.886 7.94167 138.886 7.675C138.886 7.40833 138.826 7.185 138.706 7.005C138.586 6.825 138.408 6.735 138.171 6.735C138.011 6.735 137.878 6.77833 137.771 6.865C137.665 6.95167 137.585 7.06667 137.531 7.21C137.481 7.35 137.456 7.505 137.456 7.675ZM139.969 6.35H140.409L140.429 6.925L140.379 6.845C140.449 6.665 140.556 6.52833 140.699 6.435C140.843 6.33833 141.018 6.29 141.224 6.29C141.468 6.29 141.673 6.35167 141.839 6.475C142.009 6.59833 142.136 6.765 142.219 6.975C142.303 7.185 142.344 7.41833 142.344 7.675C142.344 7.93167 142.303 8.165 142.219 8.375C142.136 8.585 142.009 8.75167 141.839 8.875C141.673 8.99833 141.468 9.06 141.224 9.06C141.088 9.06 140.964 9.03833 140.854 8.995C140.744 8.95167 140.649 8.88833 140.569 8.805C140.493 8.71833 140.433 8.61333 140.389 8.49L140.449 8.425V9.75H139.969V6.35ZM140.404 7.675C140.404 7.845 140.429 8.00167 140.479 8.145C140.533 8.285 140.613 8.39833 140.719 8.485C140.826 8.57167 140.959 8.615 141.119 8.615C141.356 8.615 141.534 8.525 141.654 8.345C141.774 8.165 141.834 7.94167 141.834 7.675C141.834 7.40833 141.774 7.185 141.654 7.005C141.534 6.825 141.356 6.735 141.119 6.735C140.959 6.735 140.826 6.77833 140.719 6.865C140.613 6.95167 140.533 7.06667 140.479 7.21C140.429 7.35 140.404 7.505 140.404 7.675Z" fill="white" fill-opacity="0.7"/>
<circle cx="109" cy="7" r="2" fill="white" fill-opacity="0.37"/>
<circle cx="310.5" cy="7.5" r="2.5" fill="#64B5E2"/>
<circle cx="317.5" cy="7.5" r="2.5" fill="#64B5E2"/>
<circle cx="324.5" cy="7.5" r="2.5" fill="#64B5E2"/>
<rect width="235" height="16" transform="translate(99 13)" fill="#151515"/>
<path d="M104 21C104 18.7909 105.791 17 108 17H267V25H108C105.791 25 104 23.2091 104 21Z" fill="#232323"/>
<path d="M271 17H325C327.209 17 329 18.7909 329 21C329 23.2091 327.209 25 325 25H271V17Z" fill="#232323"/>
<g clip-path="url(#clip2_50_431)">
<rect width="235" height="132" transform="translate(99 29)" fill="#0E0E0E"/>
<path d="M195.116 49L194.984 47.128L195.128 47.32C195.048 47.68 194.88 48.004 194.624 48.292C194.368 48.572 194.048 48.792 193.664 48.952C193.288 49.112 192.884 49.192 192.452 49.192C191.668 49.192 190.98 48.996 190.388 48.604C189.796 48.212 189.34 47.68 189.02 47.008C188.708 46.336 188.552 45.584 188.552 44.752C188.552 43.912 188.708 43.156 189.02 42.484C189.34 41.804 189.796 41.268 190.388 40.876C190.98 40.484 191.68 40.288 192.488 40.288C193.4 40.288 194.156 40.544 194.756 41.056C195.364 41.568 195.764 42.268 195.956 43.156L194.612 43.228C194.476 42.668 194.228 42.236 193.868 41.932C193.508 41.628 193.044 41.476 192.476 41.476C191.9 41.476 191.42 41.62 191.036 41.908C190.652 42.196 190.364 42.588 190.172 43.084C189.988 43.58 189.896 44.136 189.896 44.752C189.896 45.368 189.988 45.92 190.172 46.408C190.364 46.896 190.652 47.284 191.036 47.572C191.428 47.86 191.908 48.004 192.476 48.004C192.916 48.004 193.296 47.908 193.616 47.716C193.944 47.524 194.2 47.26 194.384 46.924C194.568 46.588 194.676 46.204 194.708 45.772H192.476V44.644H195.992V49H195.116ZM198.546 42.64L198.594 44.38L198.486 44.296C198.574 43.728 198.746 43.312 199.002 43.048C199.258 42.776 199.626 42.64 200.106 42.64H200.718V43.684H200.094C199.766 43.684 199.494 43.744 199.278 43.864C199.07 43.984 198.914 44.164 198.81 44.404C198.706 44.644 198.654 44.94 198.654 45.292V49H197.382V42.64H198.546ZM201.261 45.82C201.261 45.156 201.385 44.572 201.633 44.068C201.889 43.564 202.245 43.176 202.701 42.904C203.157 42.632 203.689 42.496 204.297 42.496C204.817 42.496 205.289 42.616 205.713 42.856C206.145 43.096 206.489 43.464 206.745 43.96C207.001 44.448 207.141 45.052 207.165 45.772L207.177 46.18H202.605C202.645 46.772 202.813 47.236 203.109 47.572C203.405 47.9 203.801 48.064 204.297 48.064C204.617 48.064 204.905 47.976 205.161 47.8C205.425 47.624 205.621 47.384 205.749 47.08L207.081 47.176C206.897 47.776 206.549 48.256 206.037 48.616C205.533 48.968 204.953 49.144 204.297 49.144C203.689 49.144 203.157 49.008 202.701 48.736C202.245 48.464 201.889 48.076 201.633 47.572C201.385 47.068 201.261 46.484 201.261 45.82ZM205.833 45.232C205.761 44.664 205.585 44.248 205.305 43.984C205.033 43.712 204.697 43.576 204.297 43.576C203.833 43.576 203.457 43.724 203.169 44.02C202.881 44.308 202.701 44.712 202.629 45.232H205.833ZM208.292 44.548C208.42 43.908 208.72 43.408 209.192 43.048C209.672 42.68 210.28 42.496 211.016 42.496C211.88 42.496 212.54 42.728 212.996 43.192C213.46 43.656 213.692 44.324 213.692 45.196V47.56C213.692 47.72 213.724 47.836 213.788 47.908C213.86 47.972 213.96 48.004 214.088 48.004H214.34V49H213.944L213.8 49.012C213.456 49.004 213.164 48.932 212.924 48.796C212.684 48.652 212.552 48.392 212.528 48.016C212.368 48.344 212.112 48.616 211.76 48.832C211.408 49.04 210.98 49.144 210.476 49.144C209.82 49.144 209.272 48.98 208.832 48.652C208.4 48.324 208.184 47.884 208.184 47.332C208.184 46.924 208.28 46.596 208.472 46.348C208.664 46.1 208.928 45.908 209.264 45.772C209.6 45.636 210.044 45.516 210.596 45.412L212.42 45.052C212.412 44.54 212.292 44.16 212.06 43.912C211.828 43.656 211.48 43.528 211.016 43.528C210.648 43.528 210.344 43.624 210.104 43.816C209.864 44 209.7 44.272 209.612 44.632L208.292 44.548ZM209.504 47.308C209.504 47.556 209.608 47.76 209.816 47.92C210.032 48.08 210.344 48.16 210.752 48.16C211.072 48.152 211.36 48.072 211.616 47.92C211.872 47.768 212.072 47.54 212.216 47.236C212.368 46.924 212.444 46.548 212.444 46.108V46.024L211.088 46.264C211.024 46.272 210.96 46.284 210.896 46.3C210.568 46.356 210.312 46.416 210.128 46.48C209.944 46.536 209.792 46.632 209.672 46.768C209.56 46.896 209.504 47.076 209.504 47.308ZM216.895 41.2V47.176C216.895 47.432 216.959 47.628 217.087 47.764C217.215 47.892 217.399 47.956 217.639 47.956H218.563V49H217.507C216.891 49 216.423 48.844 216.103 48.532C215.783 48.22 215.623 47.768 215.623 47.176V41.2H216.895ZM218.575 42.64V43.672H214.651V42.64H218.575ZM225.011 40.48H226.667L229.739 49H228.347L227.579 46.78H224.099L223.319 49H221.939L225.011 40.48ZM227.171 45.604L225.839 41.716L224.507 45.604H227.171ZM230.658 42.64H231.846L231.894 43.996L231.774 43.828C231.934 43.396 232.186 43.068 232.53 42.844C232.882 42.612 233.31 42.496 233.814 42.496C234.414 42.496 234.918 42.644 235.326 42.94C235.742 43.236 236.05 43.636 236.25 44.14C236.45 44.644 236.55 45.204 236.55 45.82C236.55 46.436 236.45 46.996 236.25 47.5C236.05 48.004 235.742 48.404 235.326 48.7C234.918 48.996 234.414 49.144 233.814 49.144C233.486 49.144 233.186 49.092 232.914 48.988C232.65 48.884 232.422 48.732 232.23 48.532C232.038 48.324 231.89 48.076 231.786 47.788L231.93 47.644V50.8H230.658V42.64ZM231.822 45.82C231.822 46.22 231.882 46.588 232.002 46.924C232.13 47.26 232.322 47.532 232.578 47.74C232.834 47.948 233.146 48.052 233.514 48.052C234.082 48.052 234.506 47.84 234.786 47.416C235.074 46.984 235.218 46.452 235.218 45.82C235.218 45.196 235.074 44.668 234.786 44.236C234.506 43.804 234.082 43.588 233.514 43.588C233.146 43.588 232.834 43.692 232.578 43.9C232.322 44.108 232.13 44.384 232.002 44.728C231.882 45.064 231.822 45.428 231.822 45.82ZM237.78 42.64H238.968L239.016 43.996L238.896 43.828C239.056 43.396 239.308 43.068 239.652 42.844C240.004 42.612 240.432 42.496 240.936 42.496C241.536 42.496 242.04 42.644 242.448 42.94C242.864 43.236 243.172 43.636 243.372 44.14C243.572 44.644 243.672 45.204 243.672 45.82C243.672 46.436 243.572 46.996 243.372 47.5C243.172 48.004 242.864 48.404 242.448 48.7C242.04 48.996 241.536 49.144 240.936 49.144C240.608 49.144 240.308 49.092 240.036 48.988C239.772 48.884 239.544 48.732 239.352 48.532C239.16 48.324 239.012 48.076 238.908 47.788L239.052 47.644V50.8H237.78V42.64ZM238.944 45.82C238.944 46.22 239.004 46.588 239.124 46.924C239.252 47.26 239.444 47.532 239.7 47.74C239.956 47.948 240.268 48.052 240.636 48.052C241.204 48.052 241.628 47.84 241.908 47.416C242.196 46.984 242.34 46.452 242.34 45.82C242.34 45.196 242.196 44.668 241.908 44.236C241.628 43.804 241.204 43.588 240.636 43.588C240.268 43.588 239.956 43.692 239.7 43.9C239.444 44.108 239.252 44.384 239.124 44.728C239.004 45.064 238.944 45.428 238.944 45.82Z" fill="white" fill-opacity="0.7"/>
<rect x="145" y="60" width="24" height="54" rx="5" fill="#232323"/>
<rect x="145" y="118" width="24" height="54" rx="5" fill="#232323"/>
<rect x="173" y="60" width="115" height="25" rx="5" fill="#232323"/>
<rect x="173" y="89" width="115" height="25" rx="5" fill="#232323"/>
<rect x="173" y="118" width="115" height="25" rx="5" fill="#232323"/>
<rect x="173" y="147" width="115" height="25" rx="5" fill="#232323"/>
<rect x="99" y="114" width="235" height="47" fill="url(#paint1_linear_50_431)"/>
</g>
</g>
<rect x="99.5" y="0.5" width="234" height="160" rx="9.5" stroke="white" stroke-opacity="0.2"/>
<defs>
<linearGradient id="paint0_linear_50_431" x1="46" y1="108" x2="46" y2="129" gradientUnits="userSpaceOnUse">
<stop stop-color="#0E0E0E" stop-opacity="0"/>
<stop offset="1" stop-color="#0E0E0E"/>
</linearGradient>
<linearGradient id="paint1_linear_50_431" x1="220.461" y1="114" x2="220.461" y2="161" gradientUnits="userSpaceOnUse">
<stop stop-color="#0E0E0E" stop-opacity="0"/>
<stop offset="1" stop-color="#0E0E0E"/>
</linearGradient>
<clipPath id="clip0_50_431">
<rect width="89" height="161" rx="10" fill="white"/>
</clipPath>
<clipPath id="clip1_50_431">
<rect x="99" width="235" height="161" rx="10" fill="white"/>
</clipPath>
<clipPath id="clip2_50_431">
<rect width="235" height="132" fill="white" transform="translate(99 29)"/>
</clipPath>
</defs>
</svg>
