<svg width="189" height="51" viewBox="0 0 189 51" fill="none" xmlns="http://www.w3.org/2000/svg">
<path d="M2.01764 18.813C2.12092 18.2705 2.64445 17.9144 3.187 18.0176L12.0282 19.7006C12.5708 19.8039 12.9269 20.3274 12.8236 20.87C12.7203 21.4125 12.1968 21.7686 11.6542 21.6653L3.79536 20.1694L2.29939 28.0282C2.19611 28.5708 1.67257 28.9269 1.13003 28.8236C0.587487 28.7203 0.23139 28.1968 0.334666 27.6542L2.01764 18.813ZM3.82686 18.4376C4.00988 18.7067 4.19652 18.9744 4.38674 19.2407L2.7593 20.4032C2.56027 20.1245 2.36486 19.8443 2.17314 19.5624L3.82686 18.4376ZM5.57058 20.8216C5.9734 21.3355 6.38971 21.8438 6.81909 22.3465L5.29836 23.6455C4.85113 23.1219 4.41702 22.5919 3.99652 22.0554L5.57058 20.8216ZM8.13814 23.8289C8.58187 24.308 9.03763 24.7817 9.50503 25.2496L8.08995 26.663C7.60514 26.1776 7.13192 25.6858 6.67073 25.1878L8.13814 23.8289ZM10.9373 26.6324C11.4157 27.078 11.9048 27.5181 12.4043 27.9526L11.0916 29.4615C10.5754 29.0125 10.0695 28.5572 9.57415 28.0959L10.9373 26.6324ZM13.9289 29.2357C14.4374 29.6498 14.9554 30.0584 15.4825 30.4614L14.2678 32.0503C13.7247 31.635 13.1906 31.2137 12.6659 30.7865L13.9289 29.2357ZM17.0849 31.6491C17.6187 32.0328 18.1609 32.411 18.7112 32.7836L17.5898 34.4396C17.0243 34.0567 16.4668 33.6679 15.9176 33.2731L17.0849 31.6491ZM20.3795 33.8805C20.9346 34.2349 21.4971 34.5839 22.0668 34.9273L21.0342 36.6402C20.45 36.288 19.8729 35.93 19.3032 35.5662L20.3795 33.8805ZM23.7914 35.9379C24.3645 36.2642 24.9442 36.5851 25.5301 36.9005L24.5821 38.6616C23.9824 38.3387 23.3888 38.0101 22.8017 37.6758L23.7914 35.9379ZM27.3031 37.8286C27.8915 38.128 28.4857 38.4219 29.0854 38.7104L28.2183 40.5127C27.6054 40.2178 26.9979 39.9173 26.3961 39.6111L27.3031 37.8286ZM30.9001 39.5592C31.5016 39.8327 32.1082 40.1008 32.7195 40.3634L31.9301 42.201C31.3061 41.933 30.6867 41.6593 30.0723 41.3799L30.9001 39.5592ZM34.5674 41.1346C35.1812 41.3834 35.7993 41.6268 36.4215 41.8646L35.7073 43.7328C35.0727 43.4902 34.4422 43.242 33.816 42.9881L34.5674 41.1346ZM38.2974 42.5607C38.9219 42.7855 39.5502 43.0048 40.1819 43.2185L39.5408 45.113C38.8971 44.8952 38.2567 44.6717 37.6201 44.4425L38.2974 42.5607ZM42.082 43.8415C42.7158 44.0426 43.3527 44.2383 43.9926 44.4283L43.4232 46.3455C42.7715 46.152 42.1226 45.9527 41.477 45.7477L42.082 43.8415ZM45.9137 44.9797C46.5554 45.1575 47.1997 45.3297 47.8464 45.4962L47.3476 47.433C46.6891 47.2635 46.0331 47.0881 45.3797 46.907L45.9137 44.9797ZM49.7858 45.9771C50.4341 46.1317 51.0845 46.2805 51.7367 46.4237L51.3079 48.3772C50.644 48.2315 49.982 48.0799 49.322 47.9226L49.7858 45.9771ZM53.6922 46.8346C54.3457 46.9659 55.0008 47.0914 55.6572 47.211L55.2985 49.1786C54.6303 49.0568 53.9635 48.9291 53.2984 48.7955L53.6922 46.8346ZM57.6269 47.5521C58.2846 47.6599 58.9434 47.7619 59.603 47.858L59.3148 49.8371C58.6433 49.7393 57.9728 49.6355 57.3033 49.5257L57.6269 47.5521ZM61.5846 48.1285C62.2459 48.2127 62.9077 48.291 63.5699 48.3632L63.353 50.3514C62.6788 50.2779 62.0051 50.1982 61.3319 50.1125L61.5846 48.1285ZM65.5596 48.5619C66.2238 48.6222 66.8881 48.6763 67.5523 48.7242L67.4083 50.719C66.7319 50.6702 66.0553 50.6151 65.379 50.5538L65.5596 48.5619ZM69.5465 48.8496C70.213 48.8853 70.8791 48.9146 71.5445 48.9377L71.4753 50.9365C70.7973 50.913 70.1186 50.8831 69.4396 50.8467L69.5465 48.8496ZM73.5396 48.9877C74.2076 48.998 74.8747 49.0019 75.5406 48.9992L75.5488 50.9991C74.8697 51.0019 74.1896 50.998 73.5087 50.9874L73.5396 48.9877ZM77.5345 48.9714C78.2027 48.9554 78.8693 48.9327 79.5342 48.9033L79.6227 50.9013C78.9441 50.9314 78.2639 50.9545 77.5823 50.9708L77.5345 48.9714ZM81.5252 48.7945C82.1917 48.7511 82.8561 48.7008 83.5182 48.6435L83.6907 50.6361C83.0142 50.6946 82.3356 50.746 81.6551 50.7903L81.5252 48.7945ZM85.5028 48.45C86.1661 48.378 86.8268 48.2988 87.4846 48.2124L87.7453 50.1953C87.0724 50.2837 86.3968 50.3647 85.7187 50.4384L85.5028 48.45ZM89.4585 47.9297C90.1171 47.8276 90.7724 47.718 91.4242 47.6009L91.7778 49.5694C91.1102 49.6894 90.4391 49.8016 89.765 49.9061L89.4585 47.9297ZM93.3822 47.2243C94.0341 47.0904 94.6822 46.9488 95.326 46.7994L95.7782 48.7476C95.1175 48.9009 94.4528 49.0462 93.7844 49.1834L93.3822 47.2243ZM97.2617 46.3232C97.9049 46.1558 98.5435 45.9804 99.1772 45.7968L99.7338 47.7177C99.0823 47.9065 98.426 48.0868 97.7653 48.2588L97.2617 46.3232ZM101.083 45.2152C101.715 45.0123 102.341 44.801 102.962 44.5812L103.63 46.4666C102.99 46.6931 102.344 46.9107 101.694 47.1195L101.083 45.2152ZM104.828 43.8884C105.446 43.6479 106.058 43.3987 106.663 43.1406L107.447 44.9803C106.822 45.2469 106.191 45.5042 105.553 45.7522L104.828 43.8884ZM108.478 42.3305C109.078 42.0506 109.671 41.7614 110.256 41.463L111.164 43.2449C110.558 43.554 109.944 43.8533 109.324 44.1429L108.478 42.3305ZM112.008 40.5304C112.585 40.2091 113.155 39.8782 113.717 39.5377L114.754 41.248C114.171 41.6017 113.579 41.9451 112.98 42.2784L112.008 40.5304ZM115.39 38.4785C115.941 38.1146 116.483 37.7407 117.016 37.3569L118.185 38.9796C117.63 39.3794 117.066 39.7685 116.493 40.147L115.39 38.4785ZM118.595 36.1685C119.113 35.7615 119.621 35.3442 120.119 34.9166L121.422 36.4345C120.901 36.8811 120.371 37.3165 119.831 37.741L118.595 36.1685ZM121.588 33.5992C121.828 33.3744 122.065 33.147 122.3 32.917L123.7 34.3447C123.455 34.5853 123.207 34.8231 122.956 35.0581L121.588 33.5992Z" fill="white" fill-opacity="0.7"/>
<path d="M97.6743 6.68278C97.2284 6.63958 96.9027 6.56582 96.6971 6.46152C96.5017 6.34882 96.3774 6.22894 96.3241 6.10187C96.2809 5.96641 96.2643 5.84759 96.2742 5.7454C96.2868 5.61534 96.3755 5.4739 96.5404 5.32109C96.7061 5.15898 97.0067 5.05682 97.4421 5.01461C97.8784 4.96311 98.3928 4.92855 98.9853 4.91093C99.5787 4.88402 100.208 4.87465 100.873 4.88281C101.539 4.88168 102.213 4.89074 102.896 4.90999C103.578 4.92924 104.227 4.95927 104.842 5.00009C105.458 5.03162 106.003 5.07034 106.476 5.11624C106.969 5.16394 107.347 5.22871 107.611 5.31054C107.875 5.39238 108.059 5.48051 108.162 5.57491C108.275 5.67022 108.336 5.76523 108.345 5.85992C108.364 5.95552 108.37 6.04513 108.362 6.12873C108.36 6.14731 108.358 6.16125 108.358 6.17054C108.347 6.28202 108.307 6.40009 108.239 6.52474C108.18 6.6503 108.062 6.75143 107.886 6.82813C107.711 6.89554 107.456 6.91304 107.121 6.88064C107.001 6.86894 106.729 6.86142 106.308 6.85808C105.886 6.85474 105.371 6.85169 104.761 6.84893C104.152 6.84617 103.506 6.83981 102.822 6.82985C102.679 7.23799 102.516 7.71446 102.332 8.25925C102.157 8.80494 101.975 9.37805 101.786 9.97858C101.606 10.58 101.431 11.1726 101.262 11.7564C101.094 12.3308 100.948 12.8653 100.825 13.3597C100.703 13.8449 100.613 14.244 100.554 14.5572C100.476 14.9809 100.321 15.2707 100.09 15.4265C99.8699 15.5739 99.6574 15.6377 99.453 15.6179C99.3044 15.6035 99.1589 15.5566 99.0166 15.4772C98.8733 15.407 98.7647 15.2699 98.6907 15.0658C98.6176 14.8525 98.6004 14.5461 98.6391 14.1466C98.6787 13.7378 98.7645 13.2398 98.8964 12.6524C99.0292 12.0558 99.1893 11.4196 99.3767 10.7439C99.5733 10.069 99.7844 9.39086 100.01 8.70942C100.245 8.02888 100.479 7.39525 100.714 6.80851C100.087 6.79466 99.5074 6.78066 98.9743 6.76652C98.4421 6.74309 98.0088 6.71518 97.6743 6.68278ZM106.921 17.2416C106.493 17.2002 106.199 17.0497 106.036 16.7902C105.874 16.5307 105.815 16.1686 105.86 15.7041C105.902 15.2768 106.034 14.7271 106.259 14.0549C106.494 13.3744 106.787 12.6198 107.139 11.7913C107.502 10.9543 107.899 10.0973 108.331 9.22018C108.764 8.33378 109.209 7.46732 109.666 6.62078C110.124 5.76496 110.565 4.98255 110.99 4.27356C111.189 3.96462 111.387 3.75876 111.585 3.656C111.782 3.55323 111.992 3.51264 112.215 3.53424C112.429 3.55494 112.604 3.63288 112.741 3.76804C112.879 3.89392 112.936 4.08227 112.911 4.3331C112.906 4.38884 112.811 4.5953 112.626 4.9525C112.443 5.3004 112.202 5.75528 111.903 6.31714C111.606 6.86972 111.278 7.49435 110.92 8.19106C110.563 8.87848 110.202 9.59841 109.839 10.3509C109.476 11.094 109.142 11.8306 108.837 12.5606C108.532 13.2905 108.279 13.9693 108.077 14.5968C108.445 14.1917 108.84 13.7423 109.263 13.2488C109.696 12.7469 110.133 12.2501 110.575 11.7584C111.026 11.2583 111.464 10.8037 111.888 10.3947C112.322 9.98656 112.719 9.664 113.079 9.427C113.44 9.18999 113.745 9.08364 113.996 9.10794C114.461 9.15294 114.82 9.31899 115.073 9.60611C115.337 9.88483 115.438 10.3354 115.378 10.9578C115.35 11.2458 115.261 11.5888 115.11 11.9867C114.959 12.3754 114.784 12.785 114.583 13.2156C114.392 13.6379 114.221 14.048 114.07 14.4459C113.919 14.8439 113.828 15.1961 113.799 15.5027C113.782 15.6699 113.853 15.7612 114.011 15.7765C114.466 15.8206 114.936 15.7676 115.419 15.6175C115.912 15.4683 116.386 15.2704 116.841 15.0238C117.306 14.7688 117.729 14.5145 118.11 14.2607C118.501 13.9985 118.818 13.7807 119.06 13.6072C119.232 13.4738 119.386 13.3903 119.52 13.3564C119.656 13.3133 119.779 13.2971 119.891 13.3079C120.271 13.3448 120.443 13.5537 120.407 13.9346C120.399 14.0089 120.376 14.1004 120.338 14.2092C120.3 14.3087 120.199 14.4302 120.035 14.5737C119.871 14.7173 119.627 14.9186 119.301 15.1778C118.976 15.437 118.598 15.7098 118.167 15.9963C117.746 16.2836 117.288 16.5534 116.795 16.8057C116.312 17.0496 115.82 17.241 115.319 17.38C114.818 17.519 114.339 17.5665 113.884 17.5224C113.197 17.4558 112.686 17.2094 112.352 16.7832C112.018 16.3663 111.882 15.8281 111.946 15.1685C111.99 14.7133 112.138 14.151 112.391 13.4815C112.644 12.8028 112.922 12.1124 113.224 11.4103C112.869 11.6946 112.493 12.038 112.098 12.4404C111.703 12.8336 111.302 13.2541 110.893 13.7021C110.484 14.1408 110.081 14.5753 109.683 15.0056C109.295 15.4275 108.925 15.8135 108.572 16.1638C108.221 16.5048 107.904 16.7742 107.622 16.972C107.34 17.1697 107.107 17.2596 106.921 17.2416ZM119.433 17.8911C119.136 17.8623 118.875 17.7526 118.649 17.562C118.423 17.3807 118.253 17.1532 118.139 16.8796C118.025 16.5967 117.984 16.302 118.013 15.9954C118.069 15.4194 118.249 14.8695 118.553 14.3457C118.866 13.8228 119.256 13.3355 119.721 12.8836C120.187 12.4317 120.686 12.0253 121.218 11.6642C121.76 11.2948 122.292 10.9853 122.813 10.7357C123.343 10.487 123.821 10.2989 124.246 10.1713C124.68 10.0445 125.013 9.99243 125.246 10.0149C125.515 10.041 125.728 10.1226 125.883 10.2595C126.049 10.3881 126.12 10.5732 126.097 10.8147C126.089 10.889 126.065 10.9476 126.023 10.9905C126.141 11.03 126.232 11.1091 126.296 11.2278C126.359 11.3465 126.38 11.5173 126.359 11.7403C126.35 11.8332 126.303 12.0725 126.219 12.4581C126.134 12.8438 126.037 13.3126 125.928 13.8646C125.827 14.4175 125.748 14.9959 125.689 15.5997C125.68 15.6926 125.686 15.7776 125.707 15.8546C125.728 15.9223 125.786 15.9607 125.878 15.9697C126.25 16.0057 126.633 15.9678 127.029 15.8561C127.434 15.736 127.829 15.582 128.213 15.3941C128.607 15.1979 128.963 15.0027 129.282 14.8085C129.611 14.606 129.885 14.4403 130.104 14.3114C130.333 14.1742 130.48 14.1087 130.545 14.115C130.861 14.1456 131.004 14.3189 130.973 14.6347C130.965 14.7183 130.846 14.8849 130.615 15.1345C130.395 15.3758 130.096 15.6516 129.719 15.962C129.343 16.2631 128.925 16.5602 128.465 16.8533C128.016 17.1379 127.553 17.365 127.077 17.5346C126.611 17.705 126.168 17.77 125.75 17.7295C125.239 17.68 124.861 17.5215 124.615 17.2538C124.378 16.9871 124.224 16.6439 124.152 16.2244C124.09 15.7964 124.08 15.3219 124.121 14.8008C123.581 15.433 123.031 15.9892 122.468 16.4692C121.916 16.9408 121.379 17.3061 120.857 17.5649C120.335 17.8238 119.86 17.9325 119.433 17.8911ZM125.042 11.3877C124.09 11.7361 123.224 12.1586 122.444 12.6551C121.665 13.1423 121.033 13.6717 120.546 14.2435C120.069 14.8161 119.802 15.3858 119.748 15.9524C119.732 16.1104 119.799 16.1965 119.948 16.2109C120.124 16.228 120.366 16.1483 120.674 15.9719C120.991 15.7963 121.338 15.5579 121.714 15.2568C122.091 14.9464 122.471 14.5988 122.856 14.214C123.241 13.82 123.604 13.4144 123.944 12.9973C124.285 12.5802 124.563 12.1758 124.779 11.7842C124.858 11.6418 124.946 11.5097 125.042 11.3877ZM140.007 12.2608C139.996 12.3723 139.95 12.4662 139.867 12.5426C139.785 12.619 139.686 12.6751 139.57 12.7107C139.405 12.7604 139.123 12.8175 138.723 12.8819C138.323 12.9463 137.838 13.0165 137.268 13.0926C136.707 13.1695 136.104 13.2471 135.459 13.3252C134.815 13.3941 134.171 13.4583 133.528 13.5179C133.2 14.3863 132.864 15.2821 132.522 16.2054C132.18 17.1194 131.84 18.0194 131.501 18.9055C131.376 19.2217 131.241 19.457 131.095 19.6117C130.948 19.7756 130.716 19.8422 130.4 19.8116C130.056 19.7783 129.835 19.6443 129.736 19.4097C129.645 19.1852 129.659 18.8912 129.779 18.5277C130.119 17.5386 130.433 16.6172 130.722 15.7638C131.02 14.9112 131.261 14.2219 131.443 13.6957C130.876 13.7346 130.381 13.7616 129.958 13.7769C129.535 13.7828 129.236 13.7726 129.061 13.7462C128.868 13.7087 128.713 13.614 128.596 13.4621C128.479 13.3101 128.436 13.1324 128.465 12.9289C128.501 12.7449 128.6 12.5951 128.762 12.4794C128.924 12.3545 129.108 12.288 129.315 12.2799C129.606 12.2799 129.982 12.2741 130.442 12.2625C130.903 12.2509 131.411 12.2344 131.966 12.2132C132.133 11.7511 132.319 11.2769 132.526 10.7906C132.733 10.2949 132.943 9.82295 133.155 9.37466C133.378 8.91798 133.585 8.52078 133.777 8.18307C133.969 7.84535 134.138 7.60383 134.283 7.4585C134.397 7.34764 134.532 7.26689 134.687 7.21626C134.851 7.16653 135.007 7.14887 135.156 7.16326C135.351 7.18216 135.502 7.26714 135.61 7.41819C135.717 7.56923 135.761 7.73766 135.743 7.92345C135.736 7.99777 135.724 8.07628 135.707 8.15899C135.69 8.23241 135.664 8.30493 135.629 8.37655C135.408 8.82394 135.163 9.36753 134.895 10.0073C134.636 10.648 134.361 11.3528 134.071 12.1217C134.777 12.087 135.47 12.051 136.149 12.0136C136.838 11.9678 137.461 11.925 138.018 11.8852C138.585 11.8371 139.04 11.792 139.381 11.7501C139.573 11.7031 139.73 11.7323 139.851 11.8378C139.973 11.934 140.025 12.075 140.007 12.2608ZM140.34 13.8825C140.164 13.8654 140.033 13.8059 139.949 13.704C139.866 13.6021 139.835 13.435 139.857 13.2027C139.871 13.0634 139.927 12.9235 140.025 12.7829C140.132 12.6433 140.251 12.4767 140.382 12.2831C140.514 12.0895 140.635 11.8528 140.747 11.5729C140.867 11.2939 140.947 10.9547 140.986 10.5552C140.998 10.4252 141.002 10.2942 140.996 10.1624C141 10.0221 141.008 9.8916 141.02 9.77084C141.113 8.80469 141.467 8.35132 142.08 8.41072C142.358 8.43772 142.577 8.55731 142.734 8.7695C142.892 8.98168 142.942 9.38041 142.886 9.96567C142.823 10.616 142.687 11.1889 142.48 11.6846C142.273 12.1802 142.036 12.5933 141.769 12.9238C141.503 13.2543 141.24 13.5008 140.98 13.6632C140.721 13.8256 140.507 13.8987 140.34 13.8825ZM143.775 20.4323C143.376 20.3936 143.098 20.3104 142.942 20.1827C142.795 20.0559 142.731 19.8857 142.752 19.672C142.77 19.4862 142.85 19.3346 142.993 19.2171C143.137 19.0904 143.438 18.9789 143.897 18.8828C144.433 18.7753 144.943 18.6418 145.427 18.4824C145.922 18.3147 146.33 18.1198 146.651 17.8977C146.982 17.6766 147.161 17.4267 147.188 17.148C147.206 16.9622 147.154 16.8212 147.032 16.725C146.919 16.6297 146.78 16.5739 146.612 16.5577C146.473 16.5442 146.266 16.5477 145.992 16.568C145.729 16.58 145.436 16.6032 145.114 16.6376C144.792 16.6627 144.481 16.6841 144.179 16.7018C143.888 16.711 143.64 16.7058 143.435 16.686C142.952 16.6392 142.605 16.4977 142.393 16.2615C142.183 16.0161 142.094 15.7215 142.127 15.3778C142.145 15.192 142.268 14.9459 142.494 14.6397C142.721 14.3335 143.015 14.001 143.378 13.6423C143.741 13.2836 144.141 12.9286 144.579 12.5771C145.016 12.2256 145.455 11.9071 145.895 11.6216C146.345 11.3276 146.766 11.1011 147.156 10.942C147.548 10.7737 147.874 10.7021 148.134 10.7273C148.431 10.7561 148.659 10.8719 148.817 11.0748C148.985 11.2786 149.054 11.5384 149.023 11.8543C149.009 12.0029 148.979 12.1642 148.934 12.338C148.89 12.5025 148.805 12.649 148.68 12.7776C148.556 12.8968 148.376 12.9731 148.138 13.0063C147.9 13.0395 147.585 12.9997 147.193 12.8866C146.855 13.0883 146.5 13.3118 146.129 13.5572C145.769 13.7942 145.426 14.0469 145.099 14.3154C144.774 14.5746 144.501 14.8341 144.279 15.0939C144.633 15.0157 145.032 14.9653 145.475 14.9425C145.919 14.9105 146.363 14.9161 146.809 14.9593C147.348 15.0115 147.775 15.1513 148.091 15.3788C148.417 15.5979 148.643 15.873 148.77 16.2042C148.907 16.5363 148.957 16.8927 148.92 17.2736C148.879 17.7009 148.698 18.1148 148.378 18.5151C148.058 18.9154 147.648 19.2696 147.15 19.5776C146.651 19.8856 146.108 20.119 145.521 20.2778C144.933 20.4366 144.351 20.4881 143.775 20.4323ZM169.464 21.8801C169.36 22.3763 169.038 22.5983 168.499 22.5461C168.221 22.5191 168.006 22.4139 167.855 22.2305C167.713 22.048 167.657 21.7988 167.688 21.483C167.74 20.9442 167.819 20.3704 167.925 19.7618C168.041 19.1448 168.167 18.524 168.302 17.8995C168.447 17.2759 168.585 16.6797 168.715 16.1109C168.334 16.5616 167.932 17.0244 167.511 17.4994C167.09 17.9743 166.67 18.4353 166.252 18.8824C165.834 19.3295 165.434 19.7314 165.052 20.0883C164.681 20.4368 164.345 20.7137 164.043 20.9189C163.743 21.1149 163.5 21.2038 163.314 21.1858C162.868 21.1426 162.499 20.9427 162.205 20.5861C161.912 20.2201 161.791 19.7817 161.84 19.2708C161.857 19.0942 161.899 18.8592 161.965 18.5655C162.032 18.2625 162.109 17.9419 162.198 17.6035C162.288 17.2652 162.365 16.9446 162.432 16.6416C162.499 16.3387 162.541 16.0989 162.558 15.9224C162.558 15.9224 162.559 15.9131 162.561 15.8945C162.575 15.849 162.568 15.8249 162.54 15.8222C162.503 15.8186 162.388 15.9341 162.197 16.1687C162.006 16.394 161.771 16.6901 161.492 17.0569C161.213 17.4236 160.918 17.8076 160.607 18.2089C160.305 18.611 160.02 18.9866 159.752 19.3357C159.493 19.6857 159.279 19.9557 159.111 20.1457C158.876 20.4417 158.666 20.623 158.482 20.6895C158.297 20.756 158.089 20.778 157.856 20.7555C157.531 20.724 157.286 20.5925 157.121 20.3608C156.966 20.1207 156.908 19.801 156.947 19.4015C156.963 19.2343 157.016 18.9769 157.106 18.6293C157.205 18.2825 157.322 17.9 157.456 17.4817C157.591 17.0541 157.725 16.6404 157.858 16.2406C158 15.8325 158.123 15.488 158.225 15.2072C158.346 14.8345 158.487 14.5809 158.65 14.4467C158.824 14.3041 159.031 14.2445 159.273 14.2679C159.839 14.3228 160.096 14.6289 160.042 15.1863C160.032 15.2885 159.983 15.4526 159.895 15.6785C159.808 15.9044 159.703 16.1662 159.58 16.4638C159.458 16.7613 159.329 17.0677 159.196 17.383C159.063 17.6889 158.951 17.9781 158.859 18.2505C159.119 17.8819 159.401 17.4873 159.705 17.0666C160.008 16.6459 160.315 16.2349 160.626 15.8337C160.946 15.4333 161.258 15.0697 161.561 14.7428C161.874 14.4168 162.175 14.1646 162.465 13.9863C162.755 13.7988 163.02 13.7167 163.262 13.7401C163.504 13.7635 163.732 13.8747 163.947 14.0737C164.163 14.2634 164.332 14.5002 164.455 14.784C164.588 15.0594 164.64 15.3457 164.611 15.643C164.584 15.9217 164.514 16.2526 164.402 16.6355C164.29 17.0185 164.167 17.4192 164.032 17.8375C163.898 18.2558 163.793 18.6676 163.716 19.0727C164.066 18.7503 164.439 18.3832 164.835 17.9715C165.232 17.5505 165.64 17.1165 166.059 16.6694C166.477 16.2223 166.885 15.7883 167.282 15.3673C167.688 14.9472 168.063 14.5662 168.405 14.2243C168.757 13.8833 169.064 13.6177 169.326 13.4274C169.59 13.2279 169.786 13.1344 169.916 13.147C170.297 13.1839 170.584 13.3149 170.778 13.5399C170.982 13.7566 171.061 14.1112 171.013 14.6035C170.983 14.9101 170.921 15.3073 170.827 15.7952C170.742 16.2839 170.635 16.8127 170.505 17.3815C170.385 17.9418 170.255 18.5106 170.114 19.0878C169.984 19.6565 169.863 20.1839 169.75 20.67C169.637 21.1561 169.542 21.5594 169.464 21.8801ZM174.067 23.1277C173.491 23.0719 173.045 22.8272 172.731 22.3935C172.418 21.9506 172.305 21.2785 172.392 20.3774C172.448 19.8014 172.569 19.2318 172.754 18.6684C172.951 18.0966 173.195 17.5623 173.486 17.0655C173.789 16.5603 174.122 16.119 174.487 15.7418C174.861 15.3654 175.259 15.0805 175.681 14.8869C176.104 14.6841 176.529 14.6034 176.956 14.6448C177.681 14.715 178.228 14.965 178.599 15.3947C178.97 15.8245 179.127 16.3413 179.068 16.9452C179.023 17.4097 178.852 17.8197 178.555 18.1754C178.268 18.5227 177.892 18.8239 177.427 19.0788C176.961 19.3338 176.447 19.556 175.885 19.7453C175.323 19.9346 174.749 20.0994 174.164 20.2396C174.085 20.5695 174.033 20.8645 174.007 21.1247C173.992 21.2826 174.073 21.3701 174.249 21.3872C174.667 21.4277 175.12 21.4059 175.606 21.3217C176.102 21.2292 176.607 21.0999 177.12 20.9339C177.634 20.7587 178.13 20.577 178.608 20.3888C179.086 20.1914 179.522 20.0038 179.914 19.8262C180.317 19.6401 180.645 19.4938 180.899 19.3871C181.163 19.2721 181.333 19.2181 181.407 19.2253C181.611 19.2451 181.754 19.3199 181.835 19.4497C181.917 19.5795 181.951 19.714 181.937 19.8534C181.931 19.9184 181.791 20.0502 181.519 20.2489C181.256 20.4484 180.896 20.6808 180.439 20.946C179.992 21.2027 179.488 21.4681 178.927 21.7419C178.376 22.0074 177.803 22.2566 177.209 22.4897C176.624 22.7144 176.059 22.8847 175.514 23.0006C174.976 23.1267 174.494 23.1691 174.067 23.1277ZM174.521 19.0223C174.923 18.8363 175.322 18.6405 175.717 18.435C176.122 18.221 176.465 17.9729 176.745 17.6907C177.027 17.3991 177.188 17.0443 177.228 16.6263C177.24 16.5055 177.215 16.4234 177.154 16.3799C177.093 16.3272 177.002 16.295 176.882 16.2833C176.557 16.2518 176.245 16.367 175.948 16.6288C175.66 16.8916 175.392 17.2407 175.143 17.6761C174.905 18.1031 174.697 18.5519 174.521 19.0223ZM183.394 20.3461C183.264 20.3335 183.153 20.2712 183.06 20.1591C182.978 20.0386 182.951 19.8344 182.979 19.5464C182.999 19.342 183.067 19.0251 183.184 18.5957C183.3 18.1663 183.451 17.6745 183.636 17.1205C183.831 16.558 184.047 15.9741 184.284 15.3688C184.522 14.7542 184.772 14.1548 185.035 13.5708C185.299 12.9775 185.561 12.445 185.823 11.9733C185.948 11.7417 186.124 11.5758 186.349 11.4758C186.585 11.3673 186.832 11.3257 187.093 11.3509C187.362 11.377 187.545 11.5213 187.641 11.7838C187.738 12.0463 187.772 12.3262 187.743 12.6235C187.732 12.735 187.656 12.9386 187.515 13.2344C187.383 13.531 187.208 13.8891 186.989 14.3087C186.77 14.7282 186.529 15.1831 186.266 15.6733C186.013 16.1552 185.754 16.6459 185.49 17.1454C185.236 17.6365 184.999 18.1058 184.777 18.5532C184.556 19.0006 184.372 19.3954 184.227 19.7376C184.128 19.9812 184.009 20.1478 183.869 20.2374C183.738 20.3279 183.58 20.3641 183.394 20.3461ZM182.293 24.1637C182.181 24.1529 182.054 24.1125 181.911 24.0423C181.767 23.9722 181.65 23.8249 181.56 23.6004C181.477 23.3862 181.458 23.0514 181.502 22.5962C181.536 22.2432 181.674 21.9846 181.915 21.8204C182.156 21.6562 182.462 21.5921 182.834 21.6281C183.15 21.6587 183.383 21.7704 183.533 21.9631C183.692 22.1567 183.756 22.416 183.725 22.7412C183.696 23.0385 183.596 23.296 183.425 23.5139C183.263 23.7326 183.073 23.8971 182.856 24.0074C182.648 24.1278 182.46 24.1799 182.293 24.1637Z" fill="white" fill-opacity="0.7"/>
</svg>
